<?xml version="1.0" standalone="no"?>
<svg xmlns:xlink="http://www.w3.org/1999/xlink" id="wave" style="transform:rotate(180deg); transition: 0.3s" viewBox="0 0 1440 130" version="1.1" xmlns="http://www.w3.org/2000/svg"><defs><linearGradient id="sw-gradient-0" x1="0" x2="0" y1="1" y2="0"><stop stop-color="rgba(255, 255, 255, 1)" offset="0%"/><stop stop-color="rgba(255, 255, 255, 1)" offset="100%"/></linearGradient></defs><path style="transform:translate(0, 0px); opacity:1" fill="url(#sw-gradient-0)" d="M0,52L10,60.7C20,69,40,87,60,84.5C80,82,100,61,120,58.5C140,56,160,74,180,78C200,82,220,74,240,75.8C260,78,280,91,300,93.2C320,95,340,87,360,69.3C380,52,400,26,420,15.2C440,4,460,9,480,26C500,43,520,74,540,86.7C560,100,580,95,600,97.5C620,100,640,108,660,106.2C680,104,700,91,720,71.5C740,52,760,26,780,15.2C800,4,820,9,840,26C860,43,880,74,900,86.7C920,100,940,95,960,95.3C980,95,1000,100,1020,101.8C1040,104,1060,104,1080,101.8C1100,100,1120,95,1140,97.5C1160,100,1180,108,1200,95.3C1220,82,1240,48,1260,28.2C1280,9,1300,4,1320,21.7C1340,39,1360,78,1380,97.5C1400,117,1420,117,1430,117L1440,117L1440,130L1430,130C1420,130,1400,130,1380,130C1360,130,1340,130,1320,130C1300,130,1280,130,1260,130C1240,130,1220,130,1200,130C1180,130,1160,130,1140,130C1120,130,1100,130,1080,130C1060,130,1040,130,1020,130C1000,130,980,130,960,130C940,130,920,130,900,130C880,130,860,130,840,130C820,130,800,130,780,130C760,130,740,130,720,130C700,130,680,130,660,130C640,130,620,130,600,130C580,130,560,130,540,130C520,130,500,130,480,130C460,130,440,130,420,130C400,130,380,130,360,130C340,130,320,130,300,130C280,130,260,130,240,130C220,130,200,130,180,130C160,130,140,130,120,130C100,130,80,130,60,130C40,130,20,130,10,130L0,130Z"/></svg>