<?xml version="1.0" standalone="no"?>
<svg xmlns:xlink="http://www.w3.org/1999/xlink" id="wave" style="transform:rotate(180deg); transition: 0.3s" viewBox="0 0 1440 330" version="1.1" xmlns="http://www.w3.org/2000/svg"><defs><linearGradient id="sw-gradient-0" x1="0" x2="0" y1="1" y2="0"><stop stop-color="rgba(0, 0, 0, 0)" offset="0%"/><stop stop-color="rgba(255, 179, 11, 0)" offset="100%"/></linearGradient></defs><path style="transform:translate(0, 0px); opacity:1" fill="url(#sw-gradient-0)" d="M0,264L12,231C24,198,48,132,72,121C96,110,120,154,144,181.5C168,209,192,220,216,214.5C240,209,264,187,288,176C312,165,336,165,360,159.5C384,154,408,143,432,121C456,99,480,66,504,44C528,22,552,11,576,5.5C600,0,624,0,648,33C672,66,696,132,720,148.5C744,165,768,132,792,115.5C816,99,840,99,864,121C888,143,912,187,936,220C960,253,984,275,1008,264C1032,253,1056,209,1080,198C1104,187,1128,209,1152,220C1176,231,1200,231,1224,192.5C1248,154,1272,77,1296,77C1320,77,1344,154,1368,187C1392,220,1416,209,1440,181.5C1464,154,1488,110,1512,104.5C1536,99,1560,132,1584,132C1608,132,1632,99,1656,82.5C1680,66,1704,66,1716,66L1728,66L1728,330L1716,330C1704,330,1680,330,1656,330C1632,330,1608,330,1584,330C1560,330,1536,330,1512,330C1488,330,1464,330,1440,330C1416,330,1392,330,1368,330C1344,330,1320,330,1296,330C1272,330,1248,330,1224,330C1200,330,1176,330,1152,330C1128,330,1104,330,1080,330C1056,330,1032,330,1008,330C984,330,960,330,936,330C912,330,888,330,864,330C840,330,816,330,792,330C768,330,744,330,720,330C696,330,672,330,648,330C624,330,600,330,576,330C552,330,528,330,504,330C480,330,456,330,432,330C408,330,384,330,360,330C336,330,312,330,288,330C264,330,240,330,216,330C192,330,168,330,144,330C120,330,96,330,72,330C48,330,24,330,12,330L0,330Z"/></svg>