<?xml version="1.0" standalone="no"?>
<svg xmlns:xlink="http://www.w3.org/1999/xlink" id="wave" style="transform:rotate(0deg); transition: 0.3s" viewBox="0 0 1440 130" version="1.1" xmlns="http://www.w3.org/2000/svg"><defs><linearGradient id="sw-gradient-0" x1="0" x2="0" y1="1" y2="0"><stop stop-color="rgba(255, 255, 255, 1)" offset="0%"/><stop stop-color="rgba(255, 255, 255, 1)" offset="100%"/></linearGradient></defs><path style="transform:translate(0, 0px); opacity:1" fill="url(#sw-gradient-0)" d="M0,52L60,104L120,39L180,91L240,65L300,104L360,78L420,0L480,13L540,104L600,91L660,117L720,78L780,0L840,13L900,104L960,91L1020,104L1080,104L1140,91L1200,117L1260,13L1320,0L1380,117L1440,117L1440,130L1380,130L1320,130L1260,130L1200,130L1140,130L1080,130L1020,130L960,130L900,130L840,130L780,130L720,130L660,130L600,130L540,130L480,130L420,130L360,130L300,130L240,130L180,130L120,130L60,130L0,130Z"/></svg>