<?xml version="1.0" standalone="no"?>
<svg xmlns:xlink="http://www.w3.org/1999/xlink" id="wave" style="transform:rotate(0deg); transition: 0.3s" viewBox="0 0 1440 130" version="1.1" xmlns="http://www.w3.org/2000/svg"><defs><linearGradient id="sw-gradient-0" x1="0" x2="0" y1="1" y2="0"><stop stop-color="rgba(255, 255, 255, 1)" offset="0%"/><stop stop-color="rgba(255, 255, 255, 1)" offset="100%"/></linearGradient></defs><path style="transform:translate(0, 0px); opacity:1" fill="url(#sw-gradient-0)" d="M0,52L10,52C20,52,40,52,60,45.5C80,39,100,26,120,30.3C140,35,160,56,180,73.7C200,91,220,104,240,95.3C260,87,280,56,300,41.2C320,26,340,26,360,23.8C380,22,400,17,420,28.2C440,39,460,65,480,80.2C500,95,520,100,540,86.7C560,74,580,43,600,45.5C620,48,640,82,660,91C680,100,700,82,720,67.2C740,52,760,39,780,47.7C800,56,820,87,840,97.5C860,108,880,100,900,95.3C920,91,940,91,960,75.8C980,61,1000,30,1020,19.5C1040,9,1060,17,1080,17.3C1100,17,1120,9,1140,23.8C1160,39,1180,78,1200,93.2C1220,108,1240,100,1260,97.5C1280,95,1300,100,1320,104C1340,108,1360,113,1380,104C1400,95,1420,74,1430,62.8L1440,52L1440,130L1430,130C1420,130,1400,130,1380,130C1360,130,1340,130,1320,130C1300,130,1280,130,1260,130C1240,130,1220,130,1200,130C1180,130,1160,130,1140,130C1120,130,1100,130,1080,130C1060,130,1040,130,1020,130C1000,130,980,130,960,130C940,130,920,130,900,130C880,130,860,130,840,130C820,130,800,130,780,130C760,130,740,130,720,130C700,130,680,130,660,130C640,130,620,130,600,130C580,130,560,130,540,130C520,130,500,130,480,130C460,130,440,130,420,130C400,130,380,130,360,130C340,130,320,130,300,130C280,130,260,130,240,130C220,130,200,130,180,130C160,130,140,130,120,130C100,130,80,130,60,130C40,130,20,130,10,130L0,130Z"/></svg>