<?xml version="1.0" standalone="no"?>
<svg xmlns:xlink="http://www.w3.org/1999/xlink" id="wave" style="transform:rotate(180deg); transition: 0.3s" viewBox="0 0 1440 330" version="1.1" xmlns="http://www.w3.org/2000/svg"><defs><linearGradient id="sw-gradient-0" x1="0" x2="0" y1="1" y2="0"><stop stop-color="rgba(122, 96, 255, 0.81)" offset="0%"/><stop stop-color="rgba(142, 30, 252, 0.11)" offset="100%"/></linearGradient></defs><path style="transform:translate(0, 0px); opacity:1" fill="url(#sw-gradient-0)" d="M0,264L12,242C24,220,48,176,72,176C96,176,120,220,144,214.5C168,209,192,154,216,143C240,132,264,165,288,165C312,165,336,132,360,104.5C384,77,408,55,432,82.5C456,110,480,187,504,209C528,231,552,198,576,159.5C600,121,624,77,648,82.5C672,88,696,143,720,181.5C744,220,768,242,792,214.5C816,187,840,110,864,77C888,44,912,55,936,93.5C960,132,984,198,1008,214.5C1032,231,1056,198,1080,187C1104,176,1128,187,1152,198C1176,209,1200,220,1224,192.5C1248,165,1272,99,1296,82.5C1320,66,1344,99,1368,137.5C1392,176,1416,220,1440,209C1464,198,1488,132,1512,115.5C1536,99,1560,132,1584,143C1608,154,1632,143,1656,137.5C1680,132,1704,132,1716,132L1728,132L1728,330L1716,330C1704,330,1680,330,1656,330C1632,330,1608,330,1584,330C1560,330,1536,330,1512,330C1488,330,1464,330,1440,330C1416,330,1392,330,1368,330C1344,330,1320,330,1296,330C1272,330,1248,330,1224,330C1200,330,1176,330,1152,330C1128,330,1104,330,1080,330C1056,330,1032,330,1008,330C984,330,960,330,936,330C912,330,888,330,864,330C840,330,816,330,792,330C768,330,744,330,720,330C696,330,672,330,648,330C624,330,600,330,576,330C552,330,528,330,504,330C480,330,456,330,432,330C408,330,384,330,360,330C336,330,312,330,288,330C264,330,240,330,216,330C192,330,168,330,144,330C120,330,96,330,72,330C48,330,24,330,12,330L0,330Z"/></svg>